<svg width="40" height="40" fill="none" xmlns="http://www.w3.org/2000/svg"><path d="M20 23a3 3 0 100-6 3 3 0 000 6z" stroke="#6A994E" stroke-width="1.5" stroke-linecap="round" stroke-linejoin="round"/><path d="M26.727 22.727a1.5 1.5 0 00.3 1.655l.055.054a1.816 1.816 0 010 2.573 1.818 1.818 0 01-2.573 0l-.055-.055a1.5 1.5 0 00-1.654-.3 1.5 1.5 0 00-.91 1.373v.155a1.818 1.818 0 11-3.636 0V28.1a1.5 1.5 0 00-.981-1.373 1.5 1.5 0 00-1.655.3l-.054.055a1.816 1.816 0 01-2.573 0 1.818 1.818 0 010-2.573l.055-.055a1.5 1.5 0 00.3-1.654 1.5 1.5 0 00-1.373-.91h-.155a1.818 1.818 0 110-3.636h.082a1.5 1.5 0 001.373-.981 1.5 1.5 0 00-.3-1.655l-.055-.054a1.816 1.816 0 010-2.573 1.818 1.818 0 012.573 0l.055.055a1.5 1.5 0 001.654.3h.073a1.5 1.5 0 00.909-1.373v-.155a1.818 1.818 0 013.636 0v.082a1.499 1.499 0 00.91 1.373 1.5 1.5 0 001.654-.3l.054-.055a1.816 1.816 0 012.573 0 1.818 1.818 0 010 2.573l-.055.055a1.5 1.5 0 00-.3 1.654v.073a1.5 1.5 0 001.373.909h.155a1.818 1.818 0 010 3.636H28.1a1.499 1.499 0 00-1.373.91z" stroke="#6A994E" stroke-width="1.5" stroke-linecap="round" stroke-linejoin="round"/><rect x=".75" y=".75" width="38.5" height="38.5" rx="19.25" stroke="#6A994E" stroke-width="1.5"/></svg>