<svg width="110" height="32" fill="none" xmlns="http://www.w3.org/2000/svg"><g clip-path="url(#clip0_144_995)" fill="#fff"><path d="M18.212.186c-1.007.333-1.69 1.371-1.606 2.433.023.24.06.496.091.565.06.147-2.636 2.41-5.636 4.719C8.864 9.6 8.712 9.739 8.712 10.065c0 .224.341 1.208 1.402 4.037.28.743.84 2.347 1.25 3.564.954 2.843.954 2.843 1.234 2.99.213.117.826.124.932.008.144-.147-1.568-5.253-3.212-9.569l-.303-.79 1.864-1.45a125.11 125.11 0 003.038-2.409c.636-.534 1.47-1.224 1.848-1.534l.682-.558.349.186c.984.52 2.037.357 2.78-.45.515-.542.598-.766.598-1.61 0-.628-.03-.791-.19-1.109A2.459 2.459 0 0019.857.286c-.432-.193-1.227-.247-1.644-.1zm1.326 1.34c.31.24.477.628.44 1.054-.023.31-.084.434-.304.659-.227.232-.333.278-.674.31-.333.023-.447 0-.667-.156-.954-.658-.462-2.161.675-2.045.181.015.416.093.53.178z"/><path d="M21.046 5.757c-.114.054-1.046.79-2.076 1.642a180.01 180.01 0 01-4 3.2c-1.167.907-2.205 1.736-2.296 1.844-.212.233-.22.636-.038 1.062l.13.294.643-.45c1.038-.727 3.667-2.78 5.849-4.578 1.113-.915 2.068-1.643 2.12-1.62.054.024.766.52 1.576 1.1 1.182.853 3.372 2.356 5.97 4.1.16.108.227.2.197.278a4.11 4.11 0 00-.083.581c-.053.69.174 1.271.727 1.821.326.333.53.465.871.574.53.17 1.144.14 1.652-.086 1.447-.658 1.826-2.704.712-3.843a2.315 2.315 0 00-2.826-.395l-.325.194-.28-.186a227.509 227.509 0 01-5.668-3.89c-2.568-1.836-2.507-1.805-2.855-1.642zm10.863 6.609c.636.333.69 1.441.083 1.875-.848.604-1.992-.21-1.704-1.209.212-.713.94-1.015 1.621-.666zM4.47 9.112c-1.06.395-1.652 1.31-1.576 2.433.045.612.235 1.054.651 1.503.349.372.97.666 1.417.666.243 0 .356.04.41.14.166.325 1.65 4.602 2.431 7.012.576 1.782.894 2.665 1.008 2.774.159.163.204.163 1.833.108.917-.03 3.356-.077 5.424-.108 3.53-.047 3.773-.054 3.924-.194.167-.155.432-.875.349-.96-.03-.032-.349-.07-.705-.094-.772-.054-7.644.04-9.045.124l-.955.047-.803-2.464a165.208 165.208 0 00-1.553-4.603l-.75-2.13.288-.31c.432-.465.621-.922.667-1.55.06-.984-.44-1.852-1.303-2.278-.477-.24-1.243-.286-1.712-.116zm1.204 1.255c.356.178.546.473.591.883.046.388-.076.69-.394.992-.174.163-.273.194-.682.194-.409 0-.515-.031-.681-.194-.599-.558-.523-1.44.159-1.836.356-.21.659-.225 1.007-.039zm71.068-.473c-.265.465-.598 1.046-.75 1.302-.348.62-.674 1.178-.878 1.51-.091.148-.334.567-.538.93-1.16 2.015-2.871 4.944-2.985 5.114a6.793 6.793 0 00-.303.535 3.53 3.53 0 01-.235.426c-.038.047-.333.535-.651 1.093a245.647 245.647 0 01-2.008 3.494c-.326.558-.591 1.038-.591 1.062 0 .03.508.054 1.136.054 1.319 0 1.076.163 1.947-1.356.728-1.27 1.773-3.084 2.008-3.487.106-.17.432-.744.742-1.278.303-.535.63-1.093.72-1.24.182-.294 1.008-1.728 1.144-1.976.09-.178.91-1.58 1.985-3.417l.735-1.255.12.21c.061.108.32.58.561 1.053.546 1.062.864 1.666 1.743 3.332a396.593 396.593 0 011.212 2.324c.841 1.589 1.97 3.743 2.364 4.494.242.473.644 1.248.894 1.728l.454.868h1.16c.628 0 1.15-.023 1.15-.047 0-.077-.424-.914-1.454-2.859-.56-1.069-1.19-2.254-1.386-2.634a255.56 255.56 0 00-1.402-2.673c-.575-1.085-1.537-2.937-2.151-4.107-.614-1.17-1.144-2.185-1.182-2.247-.038-.062-.257-.48-.477-.93l-.41-.813-1.09-.023-1.099-.024-.485.837zm17.348.171v1.007l5.857.024c5.848.023 5.848.023 6.295.193.735.287 1.387.93 1.561 1.565.25.86.129 1.65-.348 2.294a2.62 2.62 0 01-1.379.968c-.47.148-.712.155-6.273.155h-5.788l.015 4.549.023 4.555 1.038.024 1.045.023.016-3.549.022-3.549 5-.046c3.205-.023 5.099-.07 5.265-.124 1.523-.473 2.553-1.34 3.144-2.619 1.152-2.487-.151-5.323-2.878-6.253l-.531-.178-6.038-.023-6.045-.023v1.007zm-56.893 7.136v8.058h2.121v-7.701c0-4.23-.023-7.857-.045-8.059l-.053-.356h-2.023v8.058zm15.348-7.934c-2.136.395-4.144 1.65-5.31 3.324-.727 1.046-1.227 2.208-1.402 3.293-.136.806-.113 2.309.038 3.053.568 2.789 2.66 5.106 5.47 6.082 1.038.356 1.614.395 5.917.395h4.03V23.4H57.28c-4.447 0-4.704-.023-5.757-.488-2.925-1.294-4.425-4.424-3.515-7.368.598-1.96 2.386-3.665 4.386-4.2.462-.116 1-.14 4.712-.162l4.182-.031V9.142l-4.068.009c-3.175.007-4.205.03-4.675.116z"/><path d="M19.599 10.739a4.044 4.044 0 00-.357.302c0 .054 1.463 1.124 2.88 2.1 1.727 1.2 2.56 1.751 4.643 3.091.78.504 1.417.938 1.417.977 0 .03-.273 1.03-.599 2.216a200.55 200.55 0 00-1.136 4.284c-.788 3.146-.66 2.813-1.129 2.883-.773.116-1.34.55-1.697 1.278-.333.69-.34 1.418-.03 2.061.258.55.742 1 1.288 1.209 1.129.426 2.363-.093 2.901-1.224.175-.364.212-.527.205-1.015-.008-.705-.212-1.194-.69-1.69-.181-.178-.325-.364-.325-.41 0-.21 1.136-4.672 1.735-6.818.916-3.286.863-3.069.765-3.324-.069-.163-.584-.535-2.106-1.52a259.598 259.598 0 01-4.478-2.99c-1.909-1.31-2.515-1.689-2.697-1.689-.159 0-.356.093-.59.279zm6.674 17.232c.333.21.568.744.5 1.131-.068.372-.432.783-.796.891-.386.124-.788 0-1.09-.317-.448-.473-.304-1.434.25-1.744.302-.162.84-.147 1.136.039z"/><path d="M16.651 12.777c-1.34.96-2.651 1.952-2.954 2.239-.121.108-.212.271-.212.356 0 .411 1.447 4.905 1.674 5.184.129.17.174.17 2.66.194 1.386.015 2.598 0 2.689-.024a.714.714 0 00.28-.155c.113-.116 1.356-3.881 1.56-4.734.053-.217.076-.48.053-.58-.075-.287-4.113-3.325-4.424-3.325-.09 0-.681.38-1.326.845zm2.13 1.147c.727.519 1.87 1.394 2.174 1.665l.159.147-.258.868a38.55 38.55 0 01-.606 1.89l-.349 1.031h-1.916c-1.773 0-1.924-.007-1.993-.14-.166-.317-1.144-3.424-1.144-3.633 0-.14 2.91-2.34 3.099-2.348.053 0 .432.233.833.52z"/><path d="M24 16.868c-.621 1.658-2.19 6.772-2.871 9.367l-.084.318-3.795.047c-2.09.03-4.227.077-4.75.1l-.947.047-.136-.349a2.4 2.4 0 00-1.046-1.177c-.371-.21-.477-.233-1.09-.233-.561 0-.736.031-1 .178-.5.271-.834.612-1.061 1.085-.182.372-.212.542-.212 1.061 0 1.008.409 1.69 1.265 2.131a2.255 2.255 0 002.553-.356c.212-.194.447-.511.538-.72l.166-.373 1.152-.054c.629-.023 2.924-.07 5.098-.1 3.902-.047 3.962-.047 4.106-.21.099-.108.387-.992.803-2.448.357-1.255 1.03-3.471 1.493-4.92.992-3.115 1.023-3.224.909-3.487-.076-.163-.644-.659-.765-.659-.023 0-.175.341-.326.752zm-14.227 9.46c.712.365.81 1.279.197 1.868-.296.279-.902.317-1.25.07-.372-.264-.553-.643-.508-1.054.106-.814.864-1.24 1.56-.884z"/></g><defs><clipPath id="clip0_144_995"><path fill="#fff" d="M0 0h110v32H0z"/></clipPath></defs></svg>