<svg width="147" height="40" viewBox="0 0 147 40" fill="none" xmlns="http://www.w3.org/2000/svg">
<path d="M36.75 0H6.68182C2.99155 0 0 2.98477 0 6.66667V33.3333C0 37.0152 2.99155 40 6.68182 40H36.75C40.4403 40 43.4318 37.0152 43.4318 33.3333V6.66667C43.4318 2.98477 40.4403 0 36.75 0Z" fill="white"/>
<path d="M8.48254 28.3333V12H14.6799C15.5842 12 16.4105 12.1322 17.1589 12.3967C17.9228 12.6611 18.5699 13.0344 19.1 13.5167C19.63 13.9833 20.0433 14.5589 20.3394 15.2433C20.6356 15.9122 20.7838 16.6511 20.7838 17.46V17.6467C20.7838 18.4712 20.6356 19.2255 20.3394 19.91C20.0433 20.5945 19.6223 21.1778 19.0766 21.66C18.5465 22.1422 17.9072 22.5155 17.1589 22.78C16.4261 23.0445 15.5998 23.1767 14.6799 23.1767H12.1308V28.3333H8.48254ZM12.0139 20.3067H14.3525C14.7891 20.3067 15.1788 20.2445 15.5218 20.12C15.8804 19.98 16.1767 19.8012 16.4105 19.5833C16.6444 19.35 16.8236 19.07 16.9484 18.7433C17.0732 18.4167 17.1355 18.0745 17.1355 17.7167V17.5533C17.1355 17.18 17.0732 16.8455 16.9484 16.55C16.8393 16.2545 16.6678 16.0056 16.4339 15.8033C16.2 15.5856 15.9194 15.4222 15.592 15.3133C15.2646 15.1889 14.8826 15.1267 14.4461 15.1267H12.0139V20.3067ZM23.1219 28.3333V12H29.3193C30.2235 12 31.0499 12.1322 31.7982 12.3967C32.5621 12.6611 33.2091 13.0344 33.7393 13.5167C34.2694 13.9833 34.6825 14.5589 34.9788 15.2433C35.275 15.9122 35.4231 16.6511 35.4231 17.46V17.6467C35.4231 18.4712 35.275 19.2255 34.9788 19.91C34.6825 20.5945 34.2615 21.1778 33.7159 21.66C33.1857 22.1422 32.5466 22.5155 31.7982 22.78C31.0654 23.0445 30.239 23.1767 29.3193 23.1767H26.7702V28.3333H23.1219ZM26.6532 20.3067H28.9919C29.4284 20.3067 29.8181 20.2445 30.1612 20.12C30.5197 19.98 30.816 19.8012 31.0499 19.5833C31.2837 19.35 31.463 19.07 31.5878 18.7433C31.7124 18.4167 31.7749 18.0745 31.7749 17.7167V17.5533C31.7749 17.18 31.7124 16.8455 31.5878 16.55C31.4785 16.2545 31.3071 16.0056 31.0733 15.8033C30.8394 15.5856 30.5588 15.4222 30.2314 15.3133C29.904 15.1889 29.5219 15.1267 29.0854 15.1267H26.6532V20.3067Z" fill="#6A994E"/>
<path d="M48.9243 27.4998V11.1665H52.5491L57.0159 21.9932H57.203L61.6464 11.1665H65.2713V27.4998H62.8391V14.2232H62.6988L58.1151 25.2132H56.0805L51.4968 14.2232H51.3564V27.4998H48.9243ZM72.6805 27.7098C72.0567 27.7098 71.4799 27.6243 70.9499 27.4532C70.4354 27.2665 69.991 27.0177 69.6168 26.7065C69.2427 26.3798 68.9463 25.9987 68.7282 25.5632C68.5254 25.112 68.4241 24.6143 68.4241 24.0698V23.9532C68.4241 22.6465 69.0399 21.6665 70.2717 21.0132C71.5033 20.3443 73.3508 20.0098 75.8142 20.0098H76.8666V19.3332C76.8666 18.6643 76.6249 18.1432 76.1416 17.7698C75.6582 17.3965 74.98 17.2098 74.107 17.2098H74.0603C73.4054 17.2098 72.7115 17.3187 71.9789 17.5365C71.2616 17.7543 70.6146 18.0653 70.0378 18.4698L69.0322 16.7198C69.7961 16.2221 70.6068 15.8332 71.4644 15.5532C72.3373 15.2732 73.2417 15.1332 74.1772 15.1332H74.2707C74.9411 15.1332 75.5725 15.2265 76.165 15.4132C76.7574 15.5843 77.2642 15.841 77.6851 16.1832C78.1216 16.5254 78.4646 16.961 78.7141 17.4898C78.9791 18.0032 79.1117 18.602 79.1117 19.2865V25.2598C79.1117 25.6332 79.1506 26.022 79.2286 26.4265C79.3065 26.8153 79.4079 27.1732 79.5327 27.4998H77.2408C77.1628 27.3287 77.1005 27.111 77.0537 26.8465C77.0069 26.5665 76.9678 26.2943 76.9368 26.0298C76.3443 26.5743 75.6894 26.9943 74.9723 27.2898C74.255 27.5698 73.4911 27.7098 72.6805 27.7098ZM72.9845 25.6798C73.7639 25.6798 74.4889 25.5243 75.1594 25.2132C75.8298 24.902 76.3989 24.4977 76.8666 23.9998V21.7598H76.0949C74.2395 21.7598 72.8752 21.9387 72.0023 22.2965C71.1446 22.6387 70.716 23.1753 70.716 23.9065V23.9765C70.716 24.2253 70.7705 24.4587 70.8797 24.6765C70.9888 24.8787 71.1446 25.0577 71.3474 25.2132C71.5501 25.3532 71.7839 25.4698 72.049 25.5632C72.3297 25.641 72.6414 25.6798 72.9845 25.6798ZM82.9249 27.4998V15.3665H84.749C84.8425 15.5998 84.9205 15.8876 84.9829 16.2298C85.0453 16.5721 85.0921 16.8753 85.1232 17.1398C85.6689 16.5021 86.3237 16.0121 87.0876 15.6698C87.8517 15.3276 88.6624 15.1565 89.5198 15.1565H89.59C91.0712 15.1565 92.1782 15.5532 92.9108 16.3465C93.6437 17.1398 94.01 18.2753 94.01 19.7532V27.4998H91.6947V20.1965C91.6947 19.2632 91.4843 18.5477 91.0633 18.0498C90.6424 17.5365 89.9486 17.2798 88.9819 17.2798H88.865C88.335 17.2798 87.8438 17.3653 87.3917 17.5365C86.9396 17.692 86.5576 17.9253 86.2457 18.2365C85.934 18.5477 85.6844 18.921 85.4973 19.3565C85.326 19.7765 85.2401 20.2587 85.2401 20.8032V27.4998H82.9249ZM101 27.7098C100.376 27.7098 99.7993 27.6243 99.2692 27.4532C98.7547 27.2665 98.3104 27.0177 97.9362 26.7065C97.562 26.3798 97.2659 25.9987 97.0475 25.5632C96.8449 25.112 96.7435 24.6143 96.7435 24.0698V23.9532C96.7435 22.6465 97.3594 21.6665 98.591 21.0132C99.8227 20.3443 101.67 20.0098 104.134 20.0098H105.186V19.3332C105.186 18.6643 104.944 18.1432 104.461 17.7698C103.978 17.3965 103.3 17.2098 102.426 17.2098H102.38C101.725 17.2098 101.031 17.3187 100.298 17.5365C99.5811 17.7543 98.934 18.0653 98.3572 18.4698L97.3516 16.7198C98.1155 16.2221 98.9263 15.8332 99.7837 15.5532C100.657 15.2732 101.561 15.1332 102.497 15.1332H102.59C103.26 15.1332 103.892 15.2265 104.484 15.4132C105.077 15.5843 105.584 15.841 106.005 16.1832C106.441 16.5254 106.784 16.961 107.034 17.4898C107.299 18.0032 107.431 18.602 107.431 19.2865V25.2598C107.431 25.6332 107.47 26.022 107.548 26.4265C107.626 26.8153 107.727 27.1732 107.852 27.4998H105.56C105.482 27.3287 105.42 27.111 105.373 26.8465C105.326 26.5665 105.287 26.2943 105.256 26.0298C104.664 26.5743 104.009 26.9943 103.292 27.2898C102.575 27.5698 101.811 27.7098 101 27.7098ZM101.304 25.6798C102.083 25.6798 102.808 25.5243 103.479 25.2132C104.149 24.902 104.718 24.4977 105.186 23.9998V21.7598H104.414C102.559 21.7598 101.195 21.9387 100.322 22.2965C99.4642 22.6387 99.0354 23.1753 99.0354 23.9065V23.9765C99.0354 24.2253 99.09 24.4587 99.1991 24.6765C99.3082 24.8787 99.4642 25.0577 99.6668 25.2132C99.8694 25.3532 100.103 25.4698 100.368 25.5632C100.649 25.641 100.961 25.6798 101.304 25.6798ZM110.402 19.6832V19.4732C110.402 18.851 110.535 18.2753 110.8 17.7465C111.065 17.2177 111.431 16.7665 111.899 16.3932C112.367 16.0043 112.928 15.7087 113.583 15.5065C114.238 15.2887 114.939 15.1798 115.688 15.1798H115.922C116.686 15.1798 117.387 15.2887 118.026 15.5065C118.681 15.7087 119.243 16.0043 119.71 16.3932C120.178 16.7665 120.544 17.2177 120.809 17.7465C121.074 18.2753 121.207 18.8587 121.207 19.4965V19.6832C121.207 20.3053 121.074 20.881 120.809 21.4098C120.544 21.9387 120.178 22.3898 119.71 22.7632C119.243 23.1365 118.681 23.432 118.026 23.6498C117.387 23.852 116.686 23.9532 115.922 23.9532H115.805C115.633 23.9532 115.462 23.9453 115.29 23.9298C115.119 23.9143 114.955 23.891 114.799 23.8598V25.2832C115.002 25.252 115.204 25.2365 115.407 25.2365C115.61 25.2365 115.828 25.2365 116.062 25.2365H116.249C117.044 25.2365 117.777 25.3143 118.447 25.4698C119.118 25.6253 119.695 25.8587 120.178 26.1698C120.677 26.4653 121.067 26.8232 121.347 27.2432C121.628 27.6632 121.768 28.1377 121.768 28.6665V28.8998C121.768 29.4132 121.628 29.8798 121.347 30.2998C121.067 30.7353 120.677 31.101 120.178 31.3965C119.679 31.7077 119.087 31.941 118.401 32.0965C117.73 32.252 116.997 32.3298 116.202 32.3298H115.828C115.033 32.3298 114.292 32.252 113.606 32.0965C112.92 31.941 112.328 31.7077 111.829 31.3965C111.346 31.101 110.964 30.7353 110.683 30.2998C110.402 29.8798 110.262 29.4132 110.262 28.8998V28.6432C110.262 27.9587 110.488 27.3598 110.94 26.8465C111.408 26.3332 112.016 25.9287 112.765 25.6332V23.2998C112.032 22.942 111.455 22.452 111.034 21.8298C110.613 21.192 110.402 20.4765 110.402 19.6832ZM112.741 19.5198V19.7298C112.741 20.0877 112.819 20.4143 112.975 20.7098C113.146 20.9898 113.365 21.2387 113.63 21.4565C113.895 21.6743 114.207 21.8377 114.565 21.9465C114.924 22.0553 115.314 22.1098 115.735 22.1098H115.922C116.343 22.1098 116.732 22.0553 117.091 21.9465C117.449 21.822 117.761 21.651 118.026 21.4332C118.307 21.2153 118.525 20.9665 118.681 20.6865C118.837 20.391 118.915 20.072 118.915 19.7298V19.5198C118.915 19.162 118.837 18.8432 118.681 18.5632C118.525 18.2677 118.315 18.011 118.05 17.7932C117.785 17.5753 117.465 17.412 117.091 17.3032C116.717 17.1787 116.319 17.1165 115.898 17.1165H115.758C115.337 17.1165 114.939 17.1787 114.565 17.3032C114.207 17.412 113.895 17.5753 113.63 17.7932C113.365 18.011 113.146 18.2598 112.975 18.5398C112.819 18.8198 112.741 19.1465 112.741 19.5198ZM112.601 28.6432V28.8065C112.601 29.3198 112.897 29.7243 113.489 30.0198C114.098 30.3153 114.885 30.4632 115.852 30.4632H116.179C117.145 30.4632 117.933 30.3077 118.541 29.9965C119.149 29.701 119.453 29.3043 119.453 28.8065V28.6432C119.453 28.1298 119.149 27.7253 118.541 27.4298C117.933 27.1343 117.145 26.9865 116.179 26.9865H115.852C114.885 26.9865 114.098 27.1343 113.489 27.4298C112.897 27.7253 112.601 28.1298 112.601 28.6432ZM121.792 14.0132L120.155 17.2798L118.611 16.1132C118.736 15.7087 118.876 15.3354 119.032 14.9932C119.203 14.6354 119.398 14.3087 119.617 14.0132H121.792ZM129.801 27.6865C128.897 27.6865 128.07 27.5387 127.322 27.2432C126.573 26.9477 125.927 26.5353 125.381 26.0065C124.851 25.462 124.43 24.8243 124.118 24.0932C123.822 23.362 123.674 22.561 123.674 21.6898V21.3865C123.674 20.4998 123.822 19.6753 124.118 18.9132C124.43 18.151 124.859 17.4977 125.404 16.9532C125.95 16.3932 126.597 15.9654 127.345 15.6698C128.094 15.3587 128.912 15.2032 129.801 15.2032H129.871C130.697 15.2032 131.454 15.3432 132.139 15.6232C132.841 15.8876 133.441 16.2687 133.94 16.7665C134.455 17.2643 134.852 17.8632 135.133 18.5632C135.414 19.2477 135.554 20.002 135.554 20.8265V22.2732H126.036C126.098 22.771 126.231 23.222 126.433 23.6265C126.651 24.031 126.932 24.381 127.275 24.6765C127.618 24.9565 128.016 25.182 128.468 25.3532C128.936 25.5243 129.434 25.6098 129.965 25.6098H130.011C130.822 25.6098 131.547 25.4465 132.186 25.1198C132.841 24.7932 133.34 24.3887 133.683 23.9065L135.18 25.2365C134.899 25.6098 134.564 25.952 134.174 26.2632C133.784 26.5743 133.356 26.831 132.888 27.0332C132.42 27.2353 131.937 27.391 131.438 27.4998C130.939 27.6243 130.425 27.6865 129.894 27.6865H129.801ZM126.106 20.4765H133.309C133.278 19.9787 133.168 19.5353 132.981 19.1465C132.794 18.742 132.545 18.3998 132.233 18.1198C131.921 17.8243 131.555 17.5987 131.134 17.4432C130.713 17.272 130.253 17.1865 129.754 17.1865C129.271 17.1865 128.819 17.2643 128.398 17.4198C127.992 17.5753 127.634 17.801 127.322 18.0965C127.01 18.3765 126.745 18.7187 126.527 19.1232C126.324 19.5277 126.184 19.9787 126.106 20.4765ZM138.673 27.4998V15.3665H140.521C140.599 15.5843 140.669 15.8487 140.731 16.1598C140.793 16.471 140.84 16.7665 140.871 17.0465C141.339 16.5332 141.908 16.1287 142.579 15.8332C143.249 15.5221 143.997 15.3665 144.824 15.3665H145.034V17.6765C144.941 17.6298 144.839 17.5987 144.73 17.5832C144.637 17.5677 144.528 17.5598 144.403 17.5598C143.873 17.5598 143.389 17.6377 142.953 17.7932C142.532 17.9487 142.173 18.182 141.877 18.4932C141.596 18.7887 141.378 19.1543 141.222 19.5898C141.066 20.0098 140.988 20.4843 140.988 21.0132V27.4998H138.673Z" fill="white"/>
</svg>
