<svg width="147" height="40" fill="none" xmlns="http://www.w3.org/2000/svg"><path d="M36.75 0H6.682C2.992 0 0 2.985 0 6.667v26.666C0 37.015 2.992 40 6.682 40H36.75c3.69 0 6.682-2.985 6.682-6.667V6.667C43.432 2.985 40.44 0 36.75 0z" fill="#fff"/><path d="M8.483 28.333V12h6.197c.904 0 1.73.132 2.479.397.764.264 1.41.637 1.941 1.12.53.466.943 1.042 1.24 1.726.296.67.444 1.408.444 2.217v.187c0 .824-.148 1.579-.445 2.263a4.9 4.9 0 01-1.262 1.75c-.53.482-1.17.855-1.918 1.12-.733.264-1.56.397-2.48.397h-2.548v5.156H8.483zm3.53-8.026h2.34c.436 0 .826-.063 1.169-.187a2.75 2.75 0 00.888-.537 2.34 2.34 0 00.538-.84c.125-.326.188-.668.188-1.026v-.164c0-.373-.063-.707-.188-1.003a1.79 1.79 0 00-.514-.747 2.268 2.268 0 00-.842-.49 3.218 3.218 0 00-1.146-.186h-2.432v5.18zm11.109 8.026V12h6.197c.905 0 1.73.132 2.48.397.763.264 1.41.637 1.94 1.12a4.81 4.81 0 011.24 1.726c.296.67.444 1.408.444 2.217v.187c0 .824-.148 1.579-.444 2.263a4.903 4.903 0 01-1.263 1.75c-.53.482-1.17.855-1.918 1.12-.733.264-1.559.397-2.479.397H26.77v5.156h-3.648zm3.531-8.026h2.339c.436 0 .826-.063 1.17-.187a2.76 2.76 0 00.888-.537c.234-.233.413-.513.538-.84.124-.326.187-.668.187-1.026v-.164a2.56 2.56 0 00-.187-1.003 1.793 1.793 0 00-.515-.747 2.268 2.268 0 00-.842-.49 3.219 3.219 0 00-1.146-.186h-2.432v5.18z" fill="#6A994E"/><path d="M48.924 27.5V11.166h3.625l4.467 10.827h.187l4.443-10.826h3.625V27.5H62.84V14.223h-.14l-4.584 10.99H56.08l-4.583-10.99h-.14V27.5h-2.433zm23.756.21c-.623 0-1.2-.086-1.73-.257a4.422 4.422 0 01-1.333-.747 3.715 3.715 0 01-.889-1.143 3.6 3.6 0 01-.304-1.493v-.117c0-1.306.616-2.287 1.848-2.94 1.231-.669 3.079-1.003 5.542-1.003h1.053v-.677c0-.669-.242-1.19-.725-1.563-.484-.373-1.162-.56-2.035-.56h-.047c-.655 0-1.349.109-2.081.326a6.79 6.79 0 00-1.941.934l-1.006-1.75a10.287 10.287 0 012.432-1.167 8.828 8.828 0 012.713-.42h.094c.67 0 1.302.094 1.894.28.592.171 1.1.428 1.52.77.437.342.78.778 1.03 1.307.264.513.397 1.112.397 1.797v5.973c0 .373.039.762.117 1.166.078.39.179.747.304 1.074H77.24a2.752 2.752 0 01-.187-.654c-.047-.28-.086-.552-.117-.816a6.61 6.61 0 01-1.965 1.26 6.24 6.24 0 01-2.291.42zm.304-2.03c.78 0 1.505-.156 2.175-.467A5.472 5.472 0 0076.867 24v-2.24h-.772c-1.855 0-3.22.179-4.093.537-.857.342-1.286.878-1.286 1.61v.07c0 .248.055.482.164.7.109.202.265.38.467.536.203.14.437.257.702.35.28.078.592.117.935.117zm9.94 1.82V15.367h1.825c.094.233.172.52.234.863.062.342.11.645.14.91a5.533 5.533 0 011.965-1.47 5.883 5.883 0 012.432-.514h.07c1.481 0 2.588.397 3.32 1.19.734.794 1.1 1.93 1.1 3.407V27.5h-2.315v-7.303c0-.934-.21-1.65-.632-2.147-.42-.514-1.114-.77-2.081-.77h-.117a4.13 4.13 0 00-1.473.256 2.956 2.956 0 00-1.146.7 3.534 3.534 0 00-.749 1.12c-.171.42-.257.903-.257 1.447V27.5h-2.315zm18.076.21c-.624 0-1.2-.086-1.73-.257a4.421 4.421 0 01-1.334-.747 3.719 3.719 0 01-.889-1.143 3.604 3.604 0 01-.303-1.493v-.117c0-1.306.615-2.287 1.847-2.94 1.232-.669 3.079-1.003 5.543-1.003h1.052v-.677c0-.669-.242-1.19-.725-1.563s-1.161-.56-2.035-.56h-.046c-.655 0-1.349.109-2.082.326a6.793 6.793 0 00-1.94.934l-1.006-1.75a10.29 10.29 0 012.432-1.167 8.83 8.83 0 012.713-.42h.093c.67 0 1.302.094 1.894.28.593.171 1.1.428 1.521.77.436.342.779.778 1.029 1.307.265.513.397 1.112.397 1.797v5.973c0 .373.039.762.117 1.166.078.39.179.747.304 1.074h-2.292a2.761 2.761 0 01-.187-.654c-.047-.28-.086-.552-.117-.816a6.602 6.602 0 01-1.964 1.26c-.717.28-1.481.42-2.292.42zm.304-2.03c.779 0 1.504-.156 2.175-.467A5.48 5.48 0 00105.186 24v-2.24h-.772c-1.855 0-3.219.179-4.092.537-.858.342-1.287.878-1.287 1.61v.07c0 .248.055.482.164.7.11.202.265.38.468.536.202.14.436.257.701.35.281.078.593.117.936.117zm9.098-5.997v-.21a3.8 3.8 0 01.398-1.726c.265-.53.631-.98 1.099-1.354a4.828 4.828 0 011.684-.886 6.627 6.627 0 012.105-.327h.234a6.48 6.48 0 012.104.327 4.819 4.819 0 011.684.886c.468.373.834.825 1.099 1.354.265.528.398 1.112.398 1.75v.186a3.8 3.8 0 01-.398 1.727c-.265.529-.631.98-1.099 1.353a5.408 5.408 0 01-1.684.887 6.944 6.944 0 01-2.104.303h-.117c-.172 0-.343-.008-.515-.023a4.645 4.645 0 01-.491-.07v1.423a3.99 3.99 0 01.608-.047h.842c.795 0 1.528.078 2.198.234.671.155 1.248.389 1.731.7.499.295.889.653 1.169 1.073.281.42.421.895.421 1.424v.233c0 .513-.14.98-.421 1.4-.28.435-.67.801-1.169 1.096-.499.312-1.091.545-1.777.7a9.738 9.738 0 01-2.199.234h-.374c-.795 0-1.536-.078-2.222-.233-.686-.156-1.278-.39-1.777-.7a3.526 3.526 0 01-1.146-1.097 2.462 2.462 0 01-.421-1.4v-.257c0-.684.226-1.283.678-1.797.468-.513 1.076-.917 1.825-1.213V23.3c-.733-.358-1.31-.848-1.731-1.47a3.811 3.811 0 01-.632-2.147zm2.339-.163v.21c0 .358.078.684.234.98.171.28.39.529.655.746.265.218.577.382.935.49.359.11.749.164 1.17.164h.187c.421 0 .81-.055 1.169-.163.358-.125.67-.296.935-.514.281-.218.499-.466.655-.747.156-.295.234-.614.234-.956v-.21c0-.358-.078-.677-.234-.957a2.498 2.498 0 00-.631-.77 2.66 2.66 0 00-.959-.49 3.754 3.754 0 00-1.193-.187h-.14c-.421 0-.819.063-1.193.187-.358.109-.67.272-.935.49a2.965 2.965 0 00-.655.747 1.98 1.98 0 00-.234.98zm-.14 9.123v.163c0 .514.296.918.888 1.214.609.295 1.396.443 2.363.443h.327c.966 0 1.754-.155 2.362-.466.608-.296.912-.693.912-1.19v-.164c0-.513-.304-.918-.912-1.213-.608-.296-1.396-.444-2.362-.444h-.327c-.967 0-1.754.148-2.363.444-.592.295-.888.7-.888 1.213zm9.191-14.63l-1.637 3.267-1.544-1.167a9.37 9.37 0 01.421-1.12 5.96 5.96 0 01.585-.98h2.175zm8.009 13.673c-.904 0-1.731-.147-2.479-.443a5.83 5.83 0 01-1.941-1.236 6.206 6.206 0 01-1.263-1.914 6.346 6.346 0 01-.444-2.403v-.303c0-.887.148-1.712.444-2.474a5.887 5.887 0 011.286-1.96 5.499 5.499 0 011.941-1.283 6.338 6.338 0 012.456-.467h.07c.826 0 1.583.14 2.268.42a5.016 5.016 0 011.801 1.144 5.11 5.11 0 011.193 1.796c.281.685.421 1.439.421 2.264v1.446h-9.518c.062.498.195.949.397 1.354.218.404.499.754.842 1.05.343.28.741.505 1.193.676.468.171.966.257 1.497.257h.046c.811 0 1.536-.163 2.175-.49.655-.327 1.154-.731 1.497-1.213l1.497 1.33a5.698 5.698 0 01-1.006 1.026 5.63 5.63 0 01-1.286.77 7.885 7.885 0 01-1.45.467 6.35 6.35 0 01-1.544.186h-.093zm-3.695-7.21h7.203a3.551 3.551 0 00-.328-1.33 3.117 3.117 0 00-.748-1.026 3.18 3.18 0 00-1.099-.677 3.63 3.63 0 00-1.38-.257c-.483 0-.935.078-1.356.234a3.227 3.227 0 00-1.076.676 3.76 3.76 0 00-.795 1.027 4.577 4.577 0 00-.421 1.354zm12.567 7.024V15.367h1.848c.078.217.148.482.21.793.062.311.109.607.14.887a5.012 5.012 0 011.708-1.214c.67-.31 1.418-.466 2.245-.466h.21v2.31a.983.983 0 00-.304-.094 2.012 2.012 0 00-.327-.023c-.53 0-1.014.078-1.45.233a2.81 2.81 0 00-1.076.7 3.067 3.067 0 00-.655 1.097c-.156.42-.234.894-.234 1.423V27.5h-2.315z" fill="#fff"/></svg>