<svg width="40" height="40" fill="none" xmlns="http://www.w3.org/2000/svg"><path d="M24 12c.93 0 1.395 0 1.776.102a3 3 0 012.122 2.121C28 14.605 28 15.07 28 16v9.2c0 1.68 0 2.52-.327 3.162a3 3 0 01-1.311 1.311C25.72 30 24.88 30 23.2 30h-6.4c-1.68 0-2.52 0-3.162-.327a3 3 0 01-1.311-1.311C12 27.72 12 26.88 12 25.2V16c0-.93 0-1.395.102-1.777a3 3 0 012.121-2.12C14.605 12 15.07 12 16 12m1 11l2 2 4.5-4.5M17.6 14h4.8c.56 0 .84 0 1.054-.109a1 1 0 00.437-.437C24 13.24 24 12.96 24 12.4v-.8c0-.56 0-.84-.109-1.054a1 1 0 00-.437-.437C23.24 10 22.96 10 22.4 10h-4.8c-.56 0-.84 0-1.054.109a1 1 0 00-.437.437C16 10.76 16 11.04 16 11.6v.8c0 .56 0 .84.109 1.054a1 1 0 00.437.437C16.76 14 17.04 14 17.6 14z" stroke="#6A994E" stroke-width="1.5" stroke-linecap="round" stroke-linejoin="round"/><rect x=".75" y=".75" width="38.5" height="38.5" rx="19.25" stroke="#6A994E" stroke-width="1.5"/></svg>