<svg width="40" height="40" fill="none" xmlns="http://www.w3.org/2000/svg"><path d="M17 19.53l2 2.021 4.5-4.547m4.5 3.032c0 4.96-5.354 8.566-7.302 9.715-.221.13-.332.195-.488.23a1.125 1.125 0 01-.42 0c-.156-.035-.267-.1-.488-.23C17.354 28.602 12 24.995 12 20.036v-4.833c0-.808 0-1.211.13-1.559a2.03 2.03 0 01.548-.797c.275-.246.65-.387 1.398-.671l5.362-2.032c.208-.079.312-.118.419-.134a.989.989 0 01.286 0c.107.016.21.055.419.134l5.362 2.032c.748.284 1.123.425 1.398.67.244.218.432.492.547.798.131.348.131.751.131 1.56v4.832z" stroke="#6A994E" stroke-width="1.5" stroke-linecap="round" stroke-linejoin="round"/><rect x=".75" y=".75" width="38.5" height="38.5" rx="19.25" stroke="#6A994E" stroke-width="1.5"/></svg>